<?xml version="1.0" standalone="no"?><!DOCTYPE svg PUBLIC "-//W3C//DTD SVG 1.1//EN" "http://www.w3.org/Graphics/SVG/1.1/DTD/svg11.dtd"><svg t="1773407928648" class="icon" viewBox="0 0 1355 1024" version="1.1" xmlns="http://www.w3.org/2000/svg" p-id="21526" xmlns:xlink="http://www.w3.org/1999/xlink" width="264.6484375" height="200"><path d="M677.974469 1023.944233a3408.01064 3408.01064 0 0 1-461.630533-28.751217A225.641286 225.641286 0 0 1 25.402395 808.681888a1746.977236 1746.977236 0 0 1 0-593.272689A225.951105 225.951105 0 0 1 216.343936 28.774144 3414.207023 3414.207023 0 0 1 677.974469 0.053909a3415.663173 3415.663173 0 0 1 461.630532 28.720235 225.951105 225.951105 0 0 1 190.941541 186.635055 1753.173619 1753.173619 0 0 1 0 593.272689 225.641286 225.641286 0 0 1-190.941541 186.511128 3410.860977 3410.860977 0 0 1-461.630532 28.751217z m-202.869579-417.109521c1.394186 0 4.027649 9.015737 7.590569 26.117754a319.268633 319.268633 0 0 0 41.949513 82.814659l3.810775-0.65062a97.71696 97.71696 0 0 0 25.002406-53.87755v-1.673024l-4.833179-27.264085h0.216873c0.960439 0 1.45615-0.309819 1.45615-0.960439a175.512548 175.512548 0 0 0-22.957599-73.024374c-19.022896-24.134912-35.412329-35.877057-50.066774-35.877057h-1.146331l-0.991421 0.526692c-4.027649 0-5.948528 5.514781-5.948528 16.854162a75.843728 75.843728 0 0 0 0.495711 8.7369l2.168734 27.264085c0 2.540517-4.027649 4.182559-11.928038 4.802197-44.892795 14.933283-100.257477 36.961424-164.575932 65.433804H293.829706a451.158645 451.158645 0 0 1 53.257911-50.748376c48.145896-46.472872 74.697397-83.991971 79.003883-111.070165l-0.526692-7.094859c-0.743566-14.437572-11.370363-24.506695-31.570571-29.92853h-2.819355c-4.678269 0.371783-7.342714 1.796951-8.117261 4.306487l0.526692 2.788372c2.447571 3.500956 4.399432 5.483799 5.452817 5.483799a123.92766 123.92766 0 0 1-10.255014 24.971423l-80.150214 111.194093-63.141142 69.08967 0.526692 6.599148a26.582483 26.582483 0 0 0 21.687341 13.570079h3.284083a307.185686 307.185686 0 0 0 56.046284-19.022896 977.014687 977.014687 0 0 1 158.06973-59.361349z m392.819699-59.980987c-12.392766 0-18.589149 22.709744-18.589149 67.571556v8.148244a65.52675 65.52675 0 0 0 25.591062 49.044371 747.500661 747.500661 0 0 0-109.397142 21.687341v1.642041a36.868479 36.868479 0 0 0 18.589149 15.490958 1928.469294 1928.469294 0 0 1 250.953511-28.937109l8.148244-1.642041a1.796951 1.796951 0 0 0 0.402764 1.239276 1.61106 1.61106 0 0 0 1.239277 0.402765 15.026229 15.026229 0 0 0 7.094859-1.642041l3.284083 1.642041 3.098191-1.642041a1.920879 1.920879 0 0 0 0.402765 1.208294 1.704005 1.704005 0 0 0 1.239276 0.433747h3.284083l116.522982 13.570079c5.421835-0.619638 8.272171-2.26168 8.272172-4.802197v-4.926125c-13.012404-20.169227-40.679254-30.42424-82.287966-30.42424a240.698497 240.698497 0 0 0 20.138244-75.688818 1.45615 1.45615 0 0 1-1.642041-1.642042c1.115349 0 1.642041-0.774548 1.642041-2.292661v-16.203542a56.78985 56.78985 0 0 0-5.452817-30.548168 73.117319 73.117319 0 0 0-46.782691-33.739305 223.875317 223.875317 0 0 1-23.484292 6.47522 783.470664 783.470664 0 0 1-167.30234 61.00339h-3.098192c-3.686848-9.728321-7.745479-14.840337-12.051965-15.21212z m57.688326-109.428124h1.642041v1.642042a277.381084 277.381084 0 0 0-50.593467 52.26649 330.391141 330.391141 0 0 1-123.12213 77.454788v4.957106a115.128796 115.128796 0 0 1 18.589149 1.518114 171.577845 171.577845 0 0 0 118.165024-55.519592c34.854654-44.954759 57.378506-72.621609 66.951918-82.164038a403.849261 403.849261 0 0 1 98.150706-30.548168c54.497188-9.294574 82.133056-16.141578 82.133057-20.138245v-1.673023c-10.131086-12.640621-19.08486-19.394679-26.613465-20.014317-4.864161 0-34.080106 6.939949-84.4567 20.014317h-3.284083c0-2.571499 5.112016-5.483799 15.21212-8.612973 30.981915-12.609639 46.937601-28.96809 46.937601-48.54866v-10.255014a78.291299 78.291299 0 0 0-43.622536-38.696412c-3.253101 0-5.452817 2.168734-6.475221 6.47522a245.345784 245.345784 0 0 0-30.548168 30.548168l12.082947-1.642041 3.098192 1.642041a241.658936 241.658936 0 0 1-23.329382 55.550574 83.217423 83.217423 0 0 1-61.003391 35.381347c-1.920879 0-3.500956-6.599148-4.926124-20.138245 1.425168 0 2.571499-5.421835 3.284083-15.21212l-6.599148-1.673024c-16.513361-47.588221-30.393259-70.731712-42.476205-70.731711-7.559587 0-11.401345 9.294574-11.401345 27.264085v23.329382c0 18.77504 16.854162 39.130159 50.066774 60.476698v1.642041a226.911545 226.911545 0 0 0-43.37468 10.409924 453.234433 453.234433 0 0 0-104.625927 20.014317c8.365117 13.384187 16.947107 20.169227 25.622043 20.169226h6.475221a665.553496 665.553496 0 0 0 118.165023-25.002405zM304.053738 341.071846l-7.094859 1.518114a264.399662 264.399662 0 0 1-19.549588 46.472872l-43.126826 81.017708a1087.155394 1087.155394 0 0 0-50.066774 98.646417v2.664444l1.642041-0.49571a326.549383 326.549383 0 0 0 79.499594-58.215018c53.87755-48.393751 83.960989-90.560137 89.413806-125.259882a206.091698 206.091698 0 0 0-2.292661-10.409924c-16.079614-24.134912-31.22977-35.877057-46.286981-35.877057z m100.815151-52.359436a2.602481 2.602481 0 0 0-2.788373 2.137752l-0.526692 1.673023 2.664444 6.196383c6.599148 1.394186 22.585816 26.334628 47.40233 74.046777 41.57773 91.055848 81.141635 141.804225 117.731277 150.757998l13.074368 3.284083c27.109176 2.199716 46.472872 3.284083 59.330367 3.284083 12.392766 0 18.155402-0.867494 18.589149-2.788372l0.526693-2.664445-95.207425-49.571064c-16.66827-3.872739-38.293647-31.88039-64.287473-83.279387-46.472872-63.946672-78.415227-98.398562-94.742696-102.24032h-0.247855a3.779794 3.779794 0 0 0-1.518114-0.867493z m593.272688 138.33425l-3.810775 1.673023a42.197368 42.197368 0 0 0 10.255014 20.138245 262.943512 262.943512 0 0 0 129.59735 59.330367 73.055355 73.055355 0 0 0 40.276489-16.854162c-1.827933-3.315065-12.392766-7.900388-31.570571-13.539097a599.28318 599.28318 0 0 0-144.747507-50.779358z m-99.66882 241.287153h-1.673023a208.415342 208.415342 0 0 1-10.378942-72.404735l2.137752-7.094858c0-4.430414 15.490957-9.945195 46.906619-16.885144h1.673024a3009.707142 3009.707142 0 0 0-3.284083 62.645432c3.903721 15.490957 7.900388 23.329382 11.928037 23.329382 0 1.827933-8.241189 5.050052-47.278402 10.378941z m74.046777-12.051965h-1.642042a718.780426 718.780426 0 0 0-4.957106-72.404735 12.392766 12.392766 0 0 0 1.673023-4.802197c-1.734987 0-3.934703-4.058631-6.47522-12.051965v-1.673023a151.811383 151.811383 0 0 1 41.856567-15.181138 269.697569 269.697569 0 0 0-6.47522 57.192615 229.606971 229.606971 0 0 0 6.47522 45.79127l-30.42424 3.098191z m55.550573-4.802197h-3.284083v-1.642041c11.339381 0 16.854162-24.444731 16.854162-74.697397a49.199281 49.199281 0 0 0-15.21212-31.570571 387.862593 387.862593 0 0 1 53.87755-8.612973l4.957106 3.098192a285.777183 285.777183 0 0 1-14.71641 104.625927c0 5.855582-14.282663 8.767882-42.476205 8.767882z" fill="#ffffff" p-id="21527"></path></svg>